<svg width="13" height="13" viewBox="0 0 13 13" fill="none" xmlns="http://www.w3.org/2000/svg">
<path d="M6.49998 11.9166C6.04859 11.9166 5.66491 11.7586 5.34894 11.4426C5.03297 11.1267 4.87498 10.743 4.87498 10.2916C4.87498 10.2464 4.87733 10.1968 4.88202 10.1426C4.88672 10.0885 4.8934 10.0388 4.90206 9.99367L3.7781 9.35721C3.63366 9.4836 3.47116 9.58074 3.2906 9.64863C3.11005 9.71652 2.91595 9.75028 2.70831 9.74992C2.25692 9.74992 1.87324 9.59193 1.55727 9.27596C1.2413 8.95999 1.08331 8.57631 1.08331 8.12492C1.08331 7.67353 1.2413 7.28985 1.55727 6.97388C1.87324 6.6579 2.25692 6.49992 2.70831 6.49992C2.92498 6.49992 3.1281 6.54054 3.31769 6.62179C3.50727 6.70304 3.6788 6.81589 3.83227 6.96034L5.44373 6.14784C5.41665 5.9402 5.42784 5.73707 5.47731 5.53846C5.52679 5.33985 5.6149 5.15478 5.74165 4.98325L5.28123 4.27909C5.21804 4.29714 5.15249 4.31068 5.0846 4.31971C5.01672 4.32874 4.94684 4.33325 4.87498 4.33325C4.42359 4.33325 4.03991 4.17527 3.72394 3.85929C3.40797 3.54332 3.24998 3.15964 3.24998 2.70825C3.24998 2.25686 3.40797 1.87318 3.72394 1.55721C4.03991 1.24124 4.42359 1.08325 4.87498 1.08325C5.32637 1.08325 5.71005 1.24124 6.02602 1.55721C6.34199 1.87318 6.49998 2.25686 6.49998 2.70825C6.49998 2.88881 6.47073 3.06268 6.41223 3.22988C6.35373 3.39707 6.27465 3.5482 6.17498 3.68325L6.64894 4.38742C6.72116 4.36936 6.78887 4.35582 6.85206 4.34679C6.91526 4.33777 6.98297 4.33325 7.05519 4.33325C7.20866 4.33325 7.3531 4.35131 7.48852 4.38742C7.62394 4.42353 7.75484 4.4777 7.88123 4.54992L8.77498 3.81867C8.73887 3.72839 8.71179 3.63595 8.69373 3.54134C8.67567 3.44672 8.66665 3.34959 8.66665 3.24992C8.66665 2.79853 8.82463 2.41485 9.1406 2.09888C9.45658 1.7829 9.84026 1.62492 10.2916 1.62492C10.743 1.62492 11.1267 1.7829 11.4427 2.09888C11.7587 2.41485 11.9166 2.79853 11.9166 3.24992C11.9166 3.70131 11.7587 4.08499 11.4427 4.40096C11.1267 4.71693 10.743 4.87492 10.2916 4.87492C10.1382 4.87492 9.99373 4.8547 9.85831 4.81425C9.7229 4.77381 9.59199 4.71729 9.46561 4.64471L8.57185 5.3895C8.60797 5.47978 8.63505 5.57241 8.65311 5.66738C8.67116 5.76235 8.68019 5.85931 8.68019 5.95825C8.68019 6.40964 8.5222 6.79332 8.20623 7.10929C7.89026 7.42527 7.50658 7.58325 7.05519 7.58325C6.83852 7.58325 6.63323 7.54263 6.43931 7.46138C6.2454 7.38013 6.07152 7.26728 5.91769 7.12284L4.31977 7.92179C4.33783 8.00304 4.34469 8.08429 4.34035 8.16554C4.33602 8.24679 4.32465 8.32804 4.30623 8.40929L5.44373 9.05929C5.58817 8.93291 5.74851 8.83577 5.92473 8.76788C6.10095 8.69999 6.2927 8.66622 6.49998 8.66659C6.95137 8.66659 7.33505 8.82457 7.65102 9.14054C7.96699 9.45652 8.12498 9.8402 8.12498 10.2916C8.12498 10.743 7.96699 11.1267 7.65102 11.4426C7.33505 11.7586 6.95137 11.9166 6.49998 11.9166ZM2.70831 8.66659C2.86179 8.66659 2.99052 8.61459 3.09452 8.51059C3.19852 8.40659 3.25034 8.27803 3.24998 8.12492C3.24962 7.97181 3.19762 7.84325 3.09398 7.73925C2.99034 7.63525 2.86179 7.58325 2.70831 7.58325C2.55484 7.58325 2.42629 7.63525 2.32265 7.73925C2.21901 7.84325 2.16701 7.97181 2.16665 8.12492C2.16629 8.27803 2.21829 8.40677 2.32265 8.51113C2.42701 8.61549 2.55556 8.66731 2.70831 8.66659ZM4.87498 3.24992C5.02845 3.24992 5.15719 3.19792 5.26119 3.09392C5.36519 2.98992 5.41701 2.86136 5.41665 2.70825C5.41629 2.55514 5.36429 2.42659 5.26065 2.32259C5.15701 2.21859 5.02845 2.16659 4.87498 2.16659C4.72151 2.16659 4.59295 2.21859 4.48931 2.32259C4.38567 2.42659 4.33367 2.55514 4.33331 2.70825C4.33295 2.86136 4.38495 2.9901 4.48931 3.09446C4.59367 3.19882 4.72223 3.25064 4.87498 3.24992ZM6.49998 10.8333C6.65345 10.8333 6.78219 10.7813 6.88619 10.6773C6.99019 10.5733 7.04201 10.4447 7.04165 10.2916C7.04129 10.1385 6.98929 10.0099 6.88565 9.90592C6.78201 9.80192 6.65345 9.74992 6.49998 9.74992C6.34651 9.74992 6.21795 9.80192 6.11431 9.90592C6.01067 10.0099 5.95867 10.1385 5.95831 10.2916C5.95795 10.4447 6.00995 10.5734 6.11431 10.6778C6.21867 10.7822 6.34723 10.834 6.49998 10.8333ZM7.04165 6.49992C7.19512 6.49992 7.32386 6.44792 7.42786 6.34392C7.53186 6.23992 7.58367 6.11136 7.58331 5.95825C7.58295 5.80514 7.53095 5.67659 7.42731 5.57259C7.32367 5.46859 7.19512 5.41659 7.04165 5.41659C6.88817 5.41659 6.75962 5.46859 6.65598 5.57259C6.55234 5.67659 6.50034 5.80514 6.49998 5.95825C6.49962 6.11136 6.55162 6.2401 6.65598 6.34446C6.76034 6.44882 6.8889 6.50064 7.04165 6.49992ZM10.2916 3.79159C10.4451 3.79159 10.5739 3.73959 10.6779 3.63559C10.7819 3.53159 10.8337 3.40303 10.8333 3.24992C10.833 3.09681 10.781 2.96825 10.6773 2.86425C10.5737 2.76025 10.4451 2.70825 10.2916 2.70825C10.1382 2.70825 10.0096 2.76025 9.90598 2.86425C9.80234 2.96825 9.75034 3.09681 9.74998 3.24992C9.74962 3.40303 9.80162 3.53177 9.90598 3.63613C10.0103 3.74049 10.1389 3.79231 10.2916 3.79159Z" fill="black"/>
</svg>
