<svg width="13" height="13" viewBox="0 0 13 13" fill="none" xmlns="http://www.w3.org/2000/svg">
<path d="M6.50144 13C6.03055 13 5.6302 12.8353 5.30039 12.506C4.97057 12.1767 4.80567 11.7766 4.80567 11.3057C4.80567 11.2176 4.81313 11.1304 4.82806 11.0442C4.84346 10.9585 4.86657 10.8716 4.89739 10.7835L2.96761 9.69872C2.81209 9.87639 2.62431 10.0151 2.40428 10.1147C2.18424 10.2144 1.94759 10.2642 1.69433 10.2642C1.22344 10.2642 0.823333 10.0981 0.494 9.76589C0.164667 9.43511 0 9.03259 0 8.55833C0 8.08407 0.164667 7.68035 0.494 7.34717C0.823333 7.01398 1.22344 6.84739 1.69433 6.84739C1.963 6.84739 2.21506 6.90396 2.4505 7.01711C2.68594 7.13026 2.88263 7.28746 3.04056 7.48872L5.55028 6.22483C5.47709 5.93883 5.47806 5.65428 5.55317 5.37117C5.62828 5.08806 5.76887 4.8413 5.97494 4.63089L5.06928 3.289C4.97587 3.33137 4.87476 3.36315 4.76594 3.38433C4.65809 3.406 4.54639 3.41683 4.43083 3.41683C3.95994 3.41683 3.55983 3.25072 3.2305 2.9185C2.90117 2.58724 2.7365 2.18472 2.7365 1.71094C2.7365 1.23717 2.90141 0.833444 3.23122 0.499778C3.56056 0.166593 3.96091 0 4.43228 0C4.90365 0 5.30809 0.166111 5.64561 0.498333C5.98361 0.830556 6.15261 1.23404 6.15261 1.70878C6.15261 1.93989 6.10904 2.15752 6.02189 2.36167C5.93474 2.56581 5.81533 2.74444 5.66367 2.89756L6.57367 4.23872C6.66996 4.19635 6.7677 4.16457 6.86689 4.14339C6.96607 4.1222 7.072 4.11137 7.18467 4.11089C7.38593 4.11089 7.57539 4.14218 7.75305 4.20478C7.93072 4.26641 8.08985 4.35476 8.23044 4.46983L9.78322 3.20306C9.72592 3.08269 9.67826 2.95919 9.64022 2.83256C9.60218 2.70641 9.58317 2.57256 9.58317 2.431C9.58317 1.95626 9.74807 1.55278 10.0779 1.22056C10.4077 0.888333 10.8083 0.722222 11.2797 0.722222C11.751 0.722222 12.1555 0.888093 12.493 1.21983C12.8305 1.55157 12.9995 1.95433 13 2.42811C13.0005 2.90189 12.8315 3.30561 12.493 3.63928C12.155 3.97246 11.7501 4.13906 11.2782 4.13906C11.0736 4.13906 10.8856 4.10511 10.7142 4.03722C10.5428 3.96885 10.3868 3.87737 10.2462 3.76278L8.70711 5.03389C8.77355 5.15811 8.82363 5.2857 8.85733 5.41667C8.89104 5.54763 8.90765 5.68196 8.90717 5.81967C8.90717 6.29393 8.73817 6.69717 8.40017 7.02939C8.06217 7.36161 7.657 7.52772 7.18467 7.52772C6.91455 7.52772 6.66611 7.46898 6.43933 7.3515C6.21304 7.23402 6.02068 7.07441 5.86228 6.87267L3.35689 8.13222C3.40889 8.2863 3.42887 8.4423 3.41683 8.60022C3.40431 8.75815 3.37374 8.91607 3.32511 9.074L5.24478 10.1624C5.4003 9.98472 5.58518 9.84606 5.79944 9.74639C6.0137 9.64672 6.24722 9.59713 6.5 9.59761C6.97185 9.59761 7.37702 9.76252 7.7155 10.0923C8.0535 10.4217 8.2225 10.822 8.2225 11.2934C8.2225 11.7648 8.0535 12.1668 7.7155 12.4995C7.3775 12.8332 6.97306 13 6.50217 13M1.70156 9.542C1.97552 9.542 2.20952 9.44739 2.40356 9.25817C2.59759 9.06943 2.69461 8.83543 2.69461 8.55617C2.69461 8.27691 2.5988 8.0405 2.40717 7.84694C2.21554 7.65339 1.97793 7.55637 1.69433 7.55589C1.4247 7.55589 1.19528 7.6517 1.00606 7.84333C0.816833 8.03496 0.722222 8.27233 0.722222 8.55544C0.722222 8.82507 0.816833 9.05691 1.00606 9.25094C1.19576 9.44498 1.42759 9.542 1.70156 9.542ZM4.43733 2.69389C4.71178 2.69389 4.94578 2.59952 5.13933 2.41078C5.33337 2.22156 5.43039 1.98756 5.43039 1.70878C5.43039 1.42952 5.33457 1.19504 5.14294 1.00533C4.95131 0.816593 4.71394 0.722222 4.43083 0.722222C4.1612 0.722222 3.93178 0.819241 3.74256 1.01328C3.55333 1.20731 3.45872 1.43915 3.45872 1.70878C3.45872 1.97841 3.55333 2.21 3.74256 2.40356C3.93178 2.59711 4.16337 2.69341 4.43733 2.69389ZM6.50722 12.2915C6.78118 12.2915 7.01278 12.1971 7.202 12.0084C7.3917 11.8196 7.48655 11.5856 7.48655 11.3064C7.48655 11.0271 7.39194 10.7929 7.20272 10.6037C7.0135 10.4144 6.77926 10.3198 6.5 10.3198C6.23037 10.3198 5.99878 10.4166 5.80522 10.6102C5.61118 10.8042 5.51417 11.036 5.51417 11.3057C5.51417 11.5753 5.61118 11.8069 5.80522 12.0004C5.99926 12.194 6.23326 12.291 6.50722 12.2915ZM7.18755 6.8055C7.462 6.8055 7.69383 6.71113 7.88305 6.52239C8.07228 6.33365 8.16689 6.09965 8.16689 5.82039C8.16689 5.54113 8.07228 5.30665 7.88305 5.11694C7.69431 4.92772 7.46007 4.83311 7.18033 4.83311C6.9107 4.83311 6.67911 4.93013 6.48555 5.12417C6.29152 5.3182 6.1945 5.55004 6.1945 5.81967C6.1945 6.0893 6.29152 6.32089 6.48555 6.51444C6.67959 6.708 6.91359 6.80502 7.18755 6.8055ZM11.2847 3.41683C11.5592 3.41683 11.7932 3.32246 11.9867 3.13372C12.1808 2.9445 12.2778 2.71026 12.2778 2.431C12.2778 2.15174 12.182 1.9175 11.9903 1.72828C11.7987 1.53906 11.5613 1.44444 11.2782 1.44444C11.0086 1.44444 10.7792 1.53906 10.5899 1.72828C10.4007 1.9175 10.3059 2.15174 10.3054 2.431C10.3054 2.70015 10.4002 2.93174 10.5899 3.12578C10.7792 3.31981 11.0108 3.41683 11.2847 3.41683Z" fill="#707070"/>
</svg>
